<svg width="66" height="65" viewBox="0 0 66 65" fill="none" xmlns="http://www.w3.org/2000/svg">
<g clip-path="url(#clip0_2001_860)">
<path d="M61.3463 15.6339C59.7512 12.0736 57.2702 5.95044 54.1249 3.59546C50.4593 0.851729 41.184 1.22749 36.4566 0.832823C33.1556 0.557504 29.8204 -0.237729 26.4934 0.0683118C19.9646 0.669759 18.2917 4.49586 14.1259 8.14708C8.42522 13.1418 1.65569 15.3574 0.740185 23.7079C0.553781 25.4059 0.704792 27.1086 0.596253 28.8031C0.499512 30.3203 0.0983889 31.9438 0.0276025 33.4929C-0.152903 37.4124 0.591534 41.8683 2.04265 45.5384C4.05299 50.6241 9.30297 53.6975 13.1408 57.5083C15.1617 59.5147 17.1898 62.6897 20.0106 63.5771C22.0941 64.2329 24.9703 64.6736 27.1541 64.5531C28.0295 64.5047 29.0984 64.2034 29.949 64.2045C31.7505 64.2069 34.0074 64.8497 35.8915 64.956C47.0545 65.5882 54.1272 59.4154 58.5278 50.2921C59.9541 47.3345 60.5334 44.1547 61.8595 41.2574C62.8988 38.9851 64.7558 36.8818 65.4755 34.5056C67.3348 28.367 63.8486 21.2253 61.3451 15.635L61.3463 15.6339ZM59.7312 36.6101C58.5443 40.5354 56.6177 44.8897 54.447 48.5563C51.7889 53.0453 48.8348 56.4212 45.9042 58.3212C42.7212 60.3843 39.0616 61.4301 35.0279 61.4301C30.9943 61.4301 26.766 60.4174 22.3725 58.4217C18.5878 56.7024 14.9057 54.3309 11.725 51.5635C9.4941 49.6233 7.67017 47.3333 6.30399 44.7562C4.99326 42.2842 4.12731 39.5984 3.73091 36.7719C2.94754 31.197 4.06596 25.3409 6.87854 20.2812C8.03944 18.1933 9.46814 15.8643 11.2673 14.4121C11.9575 13.8555 12.7149 13.41 13.4475 12.9787C13.9902 12.6597 14.5034 12.3572 14.9848 12.0169C16.0595 11.2559 16.9998 10.5186 17.9071 9.80608C19.508 8.55001 21.0205 7.36248 22.7972 6.46681C24.7686 5.47188 26.8839 4.92361 29.4547 4.74164C30.356 4.67783 31.3718 4.64474 32.4713 4.64474C35.652 4.64474 39.0616 4.90825 42.0712 5.38799C45.7815 5.9788 48.6177 6.8402 50.5006 7.94975C54.5248 10.3201 57.6843 14.9261 59.3961 20.9204C60.9416 26.3311 61.0667 32.1955 59.7323 36.6077L59.7312 36.6101Z" fill="black"/>
<path d="M26.8366 38.8069C25.9364 38.1334 23.6571 38.2255 22.4962 38.1287C21.6857 38.0613 20.8658 37.8652 20.0482 37.9408C18.4437 38.0885 18.0332 39.0291 17.0103 39.9247C15.6099 41.1513 13.9476 41.696 13.7223 43.7473C13.6763 44.1644 13.714 44.5827 13.6869 44.9986C13.6633 45.3708 13.5642 45.7702 13.5477 46.1507C13.5028 47.1137 13.6869 48.2079 14.0432 49.1095C14.5375 50.3585 15.827 51.1135 16.7696 52.0494C17.2663 52.5421 17.7642 53.322 18.4567 53.5406C18.9687 53.7013 19.6754 53.81 20.2122 53.7805C20.4269 53.7686 20.69 53.6942 20.8988 53.6942C21.3412 53.6942 21.8957 53.8525 22.3582 53.8785C25.1 54.0333 26.8378 52.5173 27.9185 50.2758C28.2689 49.5491 28.4116 48.768 28.7372 48.0567C28.9932 47.4989 29.4486 46.9814 29.6256 46.3977C30.0822 44.8899 29.2257 43.1352 28.611 41.7622C28.2193 40.8878 27.6094 39.3835 26.8366 38.8045V38.8069ZM27.1292 46.7522C26.6478 48.3426 25.5471 50.4329 24.2659 51.2636C23.617 51.6843 22.869 51.8981 22.0444 51.8981C20.4953 51.8981 18.6879 51.1313 17.212 49.848C15.3975 48.2705 14.9893 45.6249 16.2187 43.4141C16.457 42.9851 16.7496 42.5066 17.1106 42.2159C17.2486 42.1048 17.4032 42.0138 17.5542 41.9252C17.6662 41.859 17.783 41.7905 17.8892 41.7149C18.1193 41.5518 18.3198 41.3947 18.5133 41.2434C19.1964 40.707 19.7356 40.2839 20.8764 40.2036C21.064 40.1906 21.2752 40.1835 21.504 40.1835C22.7912 40.1835 24.4476 40.3938 25.2427 40.8618C26.0615 41.3439 26.7057 42.288 27.0572 43.5192C27.3769 44.637 27.4029 45.847 27.1292 46.7545V46.7522Z" fill="#FF6F61"/>
<path d="M11.0296 17.9028C11.039 18.0162 11.0803 18.1167 11.1546 18.2017L11.5805 18.646C11.6478 18.7193 11.7563 18.7536 11.8519 18.7843L12.2341 18.8741L12.2683 18.8847C12.3049 18.8965 12.345 18.9024 12.3946 18.9024C12.4276 18.9024 12.4642 18.9001 12.5066 18.8965L12.5326 18.8942L13.1614 18.8847L15.659 18.5834L15.9433 18.561L16.1521 18.6649L16.1781 18.6768L16.5285 18.8339L16.6736 19.3255L16.6878 19.3834L16.7279 19.5346L16.6701 20.0758C16.6653 20.1774 16.6795 20.2554 16.7149 20.3074L16.8541 20.5106L16.8789 21.4004L16.8824 22.2134L16.9391 23.6916L17.0629 24.4844L17.1479 25.0351L17.1502 25.067C17.1573 25.1627 17.1561 25.2159 17.1502 25.2939L17.0912 25.8693C17.0818 25.9863 17.0853 26.0253 17.1113 26.134L17.1148 26.1505L17.2505 26.8382L17.3579 27.2045L17.3661 27.2329C17.3944 27.3428 17.4169 27.3995 17.4664 27.4999L17.7755 28.1227L18.0268 28.593L18.0185 28.821C18.0126 28.9604 18.0764 29.1058 18.1967 29.2322C18.4055 29.452 18.7724 29.5997 19.1063 29.5997C19.1771 29.5997 19.2467 29.5938 19.3128 29.5808L19.3363 29.5761L19.3611 29.5725C19.472 29.5583 19.5239 29.5099 19.5817 29.4248L19.5912 29.4106L19.9947 28.8647L20.2271 28.4547C20.279 28.3472 20.2908 28.2645 20.266 28.1569L20.2625 28.1404L20.01 26.7437L19.9392 26.3585L19.8578 26.0974L19.6761 25.5964L19.6572 25.5337C19.6454 25.4935 19.6336 25.4546 19.6242 25.399L19.616 25.3553L19.6124 25.3116L19.5711 25.0292L19.5664 24.9914C19.5581 24.9075 19.5381 24.8531 19.498 24.7704L19.485 24.7432L19.2054 24.0354L19.1676 23.551C19.1606 23.4647 19.1558 23.4021 19.1629 23.304L19.1653 23.2697L19.2196 22.9117L19.2632 22.1874L19.2007 20.3795L19.1452 19.9305L19.1287 19.1258L19.1606 19.01C19.1676 18.9828 19.1759 18.958 19.183 18.9344L19.3163 18.5184L19.7068 18.2797L20.2566 18.0304L20.7521 17.8886C20.8429 17.8626 20.9066 17.8555 20.9798 17.8496L21.0128 17.8473L22.0711 17.8449C22.1702 17.8366 22.2421 17.8118 22.3259 17.7551L22.3518 17.7374L22.7011 17.5389L23.4573 17.4254L23.4773 17.4231C23.5564 17.4148 23.626 17.3947 23.7003 17.3734L23.7298 17.3652L24.1699 17.2269L24.2312 17.208C24.2761 17.1938 24.3173 17.1832 24.3516 17.1761L24.4035 17.1655L24.9827 17.1194C25.0818 17.1111 25.1798 17.0839 25.2871 17.0308L25.4429 16.9575C25.5313 16.9114 25.6045 16.8145 25.6411 16.6975L25.7578 16.1374L25.7626 16.1174C25.7873 16.0228 25.7637 15.9295 25.7378 15.822L25.7012 15.6612C25.6092 15.4852 25.529 15.4698 25.4806 15.4604L25.4252 15.4497L25.4204 15.4663L24.617 15.1981C24.5332 15.1697 24.4212 15.1567 24.3315 15.1449C24.0507 15.1106 23.9257 15.1047 23.8879 15.1035L23.4656 15.0964L23.4361 15.0941C23.416 15.0929 23.3971 15.0917 23.3771 15.0917C23.3051 15.0917 23.2473 15.1035 23.1977 15.1283L23.1682 15.1437L22.6857 15.3434L22.1277 15.4911L20.9397 15.7487L20.3097 15.9035L19.1334 16.0996L18.7158 14.7892C18.6863 14.6888 18.6155 14.6155 18.4881 14.5612C18.2156 14.4395 17.8829 14.3674 17.5997 14.3674C17.2493 14.3674 16.9862 14.4643 16.8223 14.6486L16.8152 14.6569C16.7456 14.7396 16.7314 14.8317 16.7149 14.9322L16.6123 16.4742L14.55 16.3608L12.7438 16.5049L11.3363 16.6585C11.2891 16.6633 11.1452 16.6763 11.0945 16.8831L11.0201 17.2411L11.0154 17.2848C11.0048 17.3734 10.9965 17.4431 11.0036 17.5306L11.0331 17.8992L11.0296 17.9028Z" fill="black"/>
<path d="M51.9219 36.9801C51.7166 36.7923 51.4358 36.5347 50.4129 36.3692C50.4129 36.3692 50.2702 36.3433 50.2678 36.3433L50.223 36.3326L50.1923 36.3208C50.1852 36.3208 50.1805 36.3208 50.1699 36.3373L49.9233 36.719L49.4703 36.7226L49.4432 36.7261L49.416 36.7285C49.4078 36.7285 49.3995 36.7308 49.3901 36.7344L49.2591 36.7816H49.2532L49.0185 36.9128L48.6799 36.8348C48.6044 36.8171 48.5277 36.7994 48.4439 36.7994C48.4191 36.7994 48.3955 36.8005 48.3719 36.8041L48.3389 36.8076C48.0923 36.8313 47.5803 36.9033 47.027 36.9801C46.2885 37.0841 45.452 37.2011 44.973 37.2425C44.9128 37.2472 44.8515 37.2496 44.789 37.2496C44.5188 37.2496 44.2416 37.2141 43.9336 37.1716L43.9171 37.1692C43.7708 37.1456 43.5714 37.1149 43.3862 37.1149C43.247 37.1149 43.1279 37.1314 43.0217 37.1668L42.9934 37.1763C42.3681 37.3559 41.0184 37.9089 40.5807 38.4359L40.5642 38.456L40.5465 38.4749C40.4427 38.5848 40.4049 38.7632 40.4274 39.035L40.4321 39.0882L40.4297 39.1413C40.425 39.2465 40.4262 39.3458 40.4262 39.4427C40.4274 39.6412 40.4297 39.8279 40.3884 40.0098C40.3542 40.2485 40.3849 40.6503 40.4203 41.1182C40.4781 41.878 40.5512 42.8233 40.4321 43.7958C40.4462 43.8324 40.4592 43.8655 40.4734 43.895L40.7919 44.5969L40.1206 44.9738C40.0958 44.988 40.0734 45.0022 40.0545 45.0152L39.9377 45.1003L39.841 45.1286C39.5826 45.2941 39.5897 46.0255 39.7431 46.608C39.8198 46.8975 39.9602 47.2154 40.1289 47.2378L40.8155 47.3288L40.8556 48.0212C40.8709 48.2859 40.8462 48.7373 40.7801 49.4002C40.7884 49.5834 40.7836 49.7807 40.7789 49.991C40.7718 50.2923 40.7624 50.635 40.8025 50.928C40.8426 51.2412 40.8179 51.5815 40.7919 51.9419C40.7766 52.1534 40.76 52.3732 40.7589 52.5859V52.6213C40.7317 53.1897 40.8391 53.5276 41.0975 53.6883L41.1222 53.7037C41.4184 53.901 41.764 53.9896 42.243 53.9896C42.3681 53.9896 42.5026 53.9837 42.6441 53.9707L42.735 53.9625L42.8258 53.9743C42.8624 53.979 42.899 53.9814 42.9332 53.9814C43.1361 53.9814 43.3119 53.8998 43.4417 53.745C43.7378 53.3941 43.8086 52.6875 43.6458 51.702L43.6422 51.6807L43.6399 51.6595C43.6009 51.3203 43.4523 50.8867 43.3544 50.7532L43.2706 50.6385L43.2293 50.5038C43.2258 50.492 43.214 50.4495 43.2069 50.4235L43.1998 50.401C43.0453 49.8681 43.1031 48.2115 43.1597 47.6632L43.1621 47.6431C43.168 47.564 43.1739 47.499 43.1798 47.447L43.2588 46.7687L43.9372 46.7073C43.9808 46.7037 44.0363 46.7002 44.1047 46.7002C44.1448 46.7002 44.1849 46.7002 44.2262 46.7037H44.251L44.2758 46.7073C44.33 46.7132 44.3878 46.7203 44.4457 46.7274L44.4728 46.7309C44.6592 46.7545 44.8527 46.7782 45.0403 46.7782C45.2455 46.7782 45.4815 46.764 45.6738 46.6565C45.8932 46.4568 46.1551 46.4036 46.5291 46.3445L46.5468 46.3422C46.6566 46.3244 46.7627 46.3138 46.8654 46.3032L46.8831 46.3008C47.0648 46.2819 47.2217 46.2665 47.368 46.2228L47.3904 46.2169C47.6063 46.1602 47.6428 46.1425 47.6794 46.1247L47.7278 46.1023L47.7785 46.0857C47.7986 46.0787 47.8528 46.0621 47.972 46.0302L48.0039 46.0219C49.0244 45.7939 49.3063 45.5859 49.4278 44.9656L49.4302 44.9502C49.4491 44.8167 49.4597 44.578 49.4727 44.233C49.488 43.8052 49.4963 43.6634 49.5092 43.5736L49.5128 43.55L49.5175 43.5263C49.5175 43.4531 49.3972 43.3196 49.2119 43.1872C49.1199 43.1766 49.0173 43.166 48.8969 43.166C48.7341 43.166 48.5678 43.1884 48.3896 43.2345L48.3731 43.2392C48.1844 43.2971 48.0475 43.3467 47.9083 43.3975C47.6086 43.5074 47.3243 43.6102 46.4855 43.7934H46.4819C46.1351 43.882 45.767 44.0132 45.4084 44.1408C44.9046 44.3204 44.5766 44.4327 44.3112 44.4716L44.2911 44.4752C44.2427 44.4846 44.1896 44.4965 44.1318 44.5106L43.0464 44.7671L43.1031 43.6516C43.1137 43.4377 43.1196 43.1589 43.1196 42.8245C42.9061 41.8756 42.9521 40.772 43.1196 40.2532L43.2399 39.8799L43.6021 39.7322C43.6823 39.6991 43.8121 39.6577 43.9608 39.6459H43.9714C44.0882 39.6317 44.2416 39.6258 44.4386 39.6258C44.6734 39.6258 44.953 39.6341 45.2337 39.6435C45.5865 39.6542 45.9853 39.666 46.4029 39.666C46.863 39.666 47.27 39.6518 47.6499 39.6211H47.6723C48.5749 39.5738 49.2615 39.4403 49.7629 39.3422C50.0779 39.2808 50.3516 39.2276 50.597 39.2087L50.6548 39.2028H50.6961C50.8719 39.2028 51.0347 39.2524 51.2647 39.3292L51.5255 39.4013C51.5585 39.4013 51.5856 39.3966 51.5998 39.3883L51.6222 39.3753C51.6222 39.3753 51.6293 39.3694 51.634 39.3623L51.6552 39.3316L51.7579 38.9901L51.7744 38.9499C51.785 38.9239 51.8263 38.8294 51.8263 38.8294C52.0009 38.4276 52.3265 37.6809 52.0281 37.0711C51.9962 37.0451 51.9655 37.018 51.9242 36.979L51.9219 36.9801Z" fill="black"/>
<path d="M36.0315 14.7266C36.2167 15.0362 36.3548 15.2843 36.4432 15.4639L36.5294 15.653V15.8196C36.5435 15.9945 36.6167 16.4849 36.8007 16.7885L36.9222 16.9894V17.1099C36.9706 17.208 37.0213 17.3179 37.078 17.4372C37.17 17.6358 37.275 17.8591 37.3965 18.0919L37.4107 18.1202C37.8012 18.9426 38.1032 19.5925 38.3096 20.051L38.3816 20.2093L38.384 20.383C38.3875 20.6016 38.6341 21.2113 38.9479 21.983L38.9597 22.0125C39.0848 22.3587 39.1874 22.6328 39.2723 22.8585C39.3478 23.0606 39.4127 23.2343 39.4446 23.3335L39.4705 23.4139L39.48 23.4978C39.4941 23.616 39.5614 23.7566 39.6192 23.8771L39.7053 24.0591L39.7206 24.1997C39.7313 24.2942 39.7655 24.3864 39.8221 24.4726L39.9059 24.5979L39.9401 24.7444C39.9932 24.9689 40.1112 25.2655 40.248 25.6011L40.2834 25.6885L40.3188 25.7653L40.5017 26.2415C40.5819 26.4507 40.681 26.6905 40.7872 26.9517L40.7978 26.9777C40.891 27.2057 40.9913 27.4491 41.0904 27.702L41.1564 27.7457L41.3228 27.7646L41.5292 27.9691C41.6508 28.0884 41.9504 28.1699 42.2749 28.1699C42.5226 28.1699 42.7055 28.1215 42.7928 28.0341L42.8152 28.0116C42.8907 27.8391 43.0181 27.5779 43.1396 27.3487L43.1786 27.2743L43.2317 27.2093C43.2871 27.1419 43.3732 27.0143 43.4747 26.7933L43.4936 26.752L43.516 26.713C43.5467 26.661 43.575 26.609 43.6068 26.5511C43.6281 26.5121 43.654 26.4649 43.6741 26.4318L43.7378 26.3231L43.831 26.238C44.041 26.0466 44.3288 25.7677 44.3961 25.5715L44.4303 25.4723L44.4881 25.3837C44.625 25.1757 44.8928 24.8259 45.1299 24.5187C45.1983 24.4266 45.2668 24.3356 45.334 24.2469C45.5133 24.0094 45.6466 23.8322 45.7233 23.7058L45.7693 23.629L45.8307 23.564C45.9286 23.46 45.951 23.4186 45.9605 23.3903L46.0301 23.187L46.1882 23.0417C46.246 22.9885 46.3073 22.9306 46.3734 22.868L46.5728 22.6801C46.7828 22.4544 47.7278 21.0365 48.0498 20.3039L48.1018 20.1857L48.1867 20.0888C48.2079 20.0652 48.228 20.0404 48.2492 20.0155L48.8379 19.2971L48.8403 19.2995C49.3039 18.6862 49.5364 18.3199 49.6744 18.1013L49.7499 17.9843L49.8797 17.7799L50.0661 17.6759C50.1262 17.6428 50.1628 17.5826 50.1711 17.501L50.1841 17.3711L50.236 17.2517C50.3067 17.091 50.4306 16.8831 50.5167 16.7566L50.6748 16.5262L50.8494 16.4671C51.6045 15.1862 51.6446 14.892 51.6552 14.4418L51.6588 14.313L51.7001 14.1913C51.7343 14.0921 51.7213 13.9834 51.6647 13.877C51.4606 13.4977 50.7893 13.2141 50.3244 13.2141C50.1758 13.2141 49.9068 13.2448 49.777 13.4481L49.7558 13.4812L49.7322 13.5119C49.6826 13.5745 49.6119 13.6903 49.5116 13.8534C49.4597 13.9361 49.403 14.0283 49.3441 14.1228C48.8049 15.0811 48.5807 15.3682 48.458 15.5017L48.3342 15.6376L48.2516 15.6731L48.2079 15.718V15.9543L47.6711 16.1611C47.4151 16.2592 47.0966 16.31 46.7261 16.31C46.4654 16.31 46.2507 16.2852 46.1622 16.2745L46.1327 16.271C44.8255 16.3064 44.3041 16.414 44.0976 16.4978L43.9466 16.5593H43.5997C43.1502 16.5593 42.5344 16.5593 41.5033 16.7259L41.4372 16.7365H41.0455L41.0019 16.759L40.8273 16.9138H39.7572L39.5649 16.3419C39.5578 16.3194 39.5496 16.2993 39.539 16.2722C39.2358 15.4698 38.7379 14.15 38.6105 13.799L38.5857 13.7317L38.5727 13.6608C38.5515 13.5438 38.4677 13.3996 38.3486 13.2756L38.3356 13.2626L38.1822 13.0877L38.148 13.0333C38.0041 12.8053 37.4118 12.6068 37.0709 12.5571C36.98 12.5465 36.8939 12.5406 36.8137 12.5406C36.5754 12.5406 36.3961 12.5855 36.2828 12.6753L36.2462 12.7037L36.2061 12.7285C35.9218 12.9033 35.6729 13.6832 35.6729 14.0613C35.6729 14.1594 35.7908 14.3544 36.0185 14.7183L36.0268 14.7313L36.0315 14.7266ZM41.8596 18.9745C42.0236 18.9533 42.1581 18.9426 42.2583 18.9415H42.3114L42.3386 18.9438L42.5132 18.8552H42.7114C42.8364 18.8552 43.07 18.8552 43.2847 18.6992L43.431 18.5941L43.608 18.5586C43.7991 18.5196 44.1153 18.4747 44.4976 18.4322L46.5008 18.2077L45.2467 19.7887C44.9742 20.1325 44.9175 20.3098 44.9187 20.3984L44.9211 20.5863L44.842 20.7576C44.8326 20.7789 44.8232 20.8001 44.8137 20.8202L44.6934 21.0979L44.4244 21.235C44.3973 21.2492 44.3395 21.2905 44.2663 21.4099L44.2498 21.4359C44.2097 21.4973 44.1743 21.5481 44.1236 21.6025L44.107 21.6202C43.9938 21.827 43.8723 22.0125 43.772 22.1307L43.7307 22.1791L43.6835 22.2205C43.5738 22.3174 43.49 22.4048 43.4275 22.4887L42.3574 23.9279L41.941 22.1826C41.9009 22.016 41.8313 21.8329 41.7617 21.6533L41.7487 21.6202C41.7227 21.5552 41.7015 21.502 41.6826 21.4571L41.6295 21.3283L41.6142 21.2208C41.6024 21.1369 41.5599 21.0388 41.5151 20.9337L41.4868 20.8663C41.4714 20.8285 41.4526 20.7883 41.4337 20.7458C41.3712 20.6087 41.2921 20.4397 41.226 20.2034C41.16 19.9671 40.5642 19.1376 40.5642 19.1376L41.8619 18.9734L41.8596 18.9745Z" fill="black"/>
<path d="M22.7629 43.9659C22.685 43.4176 22.5942 42.8705 22.4833 42.327C22.4431 41.5494 21.8202 40.8381 21.0003 40.9657C20.0034 41.1241 19.7202 42.1072 20.0258 42.9721C20.1155 43.4247 20.1886 43.8796 20.2511 44.3357C20.165 44.3499 20.0824 44.3641 20.0057 44.3771C19.0855 44.5082 18.2597 44.936 17.402 45.2657C16.838 45.3945 16.4062 45.9085 16.4062 46.5075C16.4062 47.2012 16.9843 47.7802 17.6769 47.7802C18.5935 47.7152 19.3628 47.0842 20.2582 46.9176C20.3373 46.9034 20.4151 46.8892 20.4942 46.875C20.5319 47.7293 20.4281 48.5789 20.2617 49.4179C20.1438 50.1009 20.6817 50.7614 21.3495 50.8524C22.029 50.9587 22.6921 50.4412 22.7806 49.7629C23.0035 48.6888 23.079 47.597 23.0165 46.5052C23.3457 46.4804 23.676 46.4697 24.0063 46.478C24.3367 46.504 24.6635 46.5454 24.9903 46.6056C26.0745 46.8077 26.8685 45.4039 26.1689 44.5661C25.5188 43.8914 24.1267 43.8394 22.7629 43.9671V43.9659Z" fill="black"/>
<path d="M47.5305 30.2106L46.7837 30.1716C45.0341 30.0795 43.2255 29.9837 41.4629 29.9837C40.2088 29.9837 39.0868 30.031 38.0309 30.1291L37.4434 30.1988L37.3549 30.1964C37.0446 30.1893 36.7355 30.1823 36.4253 30.1775L35.288 30.1586L35.1936 29.0243C35.0402 27.1786 34.7936 25.2974 34.5541 23.4777L34.5093 23.1362C34.4185 22.7049 34.3571 22.2772 34.2969 21.8624C34.2014 21.1948 34.1105 20.565 33.9123 20.0179L33.8828 19.9364L33.8651 19.8513C33.661 18.8907 33.4216 17.9572 33.2151 17.1702L33.2009 17.117L33.1915 17.0627C33.1372 16.7425 33.0865 16.4778 33.0346 16.2332L33.0252 16.1847C32.6099 13.7837 32.1958 11.6343 31.3275 9.66098L31.3133 9.62789L31.3003 9.59363C31.2838 9.54873 31.2638 9.50619 31.239 9.46365L31.1941 9.38448L31.1611 9.2994C31.0891 9.11507 31.0136 8.93428 30.9393 8.76058L30.9252 8.72631C30.6774 8.09887 29.9837 6.64075 28.9077 6.64075C28.8747 6.64075 28.8417 6.64075 28.8098 6.64429C28.588 6.65965 28.3851 6.7211 28.207 6.82626L28.0618 6.91252L27.899 6.95742C27.3906 7.09567 27.3375 7.66285 27.3516 7.98898V8.01498C27.3552 8.13905 27.367 8.27493 27.3894 8.42973L27.4094 8.57388C27.4094 8.57388 27.3965 8.72277 27.3965 8.72395C27.4 8.74522 27.4153 8.8043 27.4849 8.95555L27.5203 9.03236L27.5451 9.11389C27.636 9.40811 27.7575 9.72124 27.9167 10.0698L27.9521 10.1478L27.9769 10.2293C28.5857 12.2381 28.9372 14.2374 29.2015 15.9319C29.7725 18.6768 30.4167 21.7833 30.8567 24.872C30.9771 25.6566 31.0762 26.3514 31.1588 26.9966L31.1647 27.045L31.167 27.0947C31.2012 27.7729 31.2307 28.4512 31.259 29.1306L31.3086 30.3323L30.1123 30.4363C27.6206 30.6537 24.9661 30.8995 22.3199 31.2883C19.6984 31.807 16.2913 32.5561 13.0929 33.7602C12.9997 33.8051 12.9065 33.85 12.8109 33.8949L12.7378 33.9292L12.6611 33.954C12.1573 34.1171 11.696 34.2837 11.2442 34.4656C9.76948 35.0506 8.41746 35.6744 8.06943 36.8809L8.06117 36.9104L8.05055 36.94C7.82167 37.6052 8.05409 38.4477 8.56729 38.8341C8.85162 39.0066 9.18785 39.0905 9.59369 39.0905C10.5316 39.0905 11.6347 38.6344 12.3827 38.2917L12.4133 38.2788C12.7224 38.1464 13.0327 38.0259 13.3336 37.9077C13.8303 37.7139 14.2998 37.5296 14.7387 37.311C16.2311 36.4957 17.6138 35.8812 18.9658 35.431L19.0059 35.418L19.0472 35.4074C20.3426 35.0718 21.7689 34.7303 23.4076 34.3664L23.4442 34.3593C24.959 34.0698 26.4515 33.8039 27.8802 33.5712L27.9274 33.5641L27.9745 33.5593C28.6812 33.4979 29.4363 33.4258 30.1713 33.3147L31.5127 33.1115L31.6118 34.4668C31.784 36.8064 31.9716 39.8881 31.9008 42.9982C31.9185 45.5576 31.9386 48.7373 31.3298 51.7753C31.2225 52.4772 30.9983 53.0928 30.7812 53.6895C30.6043 54.1751 30.4367 54.6336 30.3636 55.0732L30.3565 55.1134L30.3471 55.1535C30.097 56.2205 30.1217 57.5298 32.558 58.1797L32.5957 58.1903L32.6335 58.2033C32.9603 58.3132 33.2493 58.3687 33.4912 58.3687C33.825 58.3687 34.8396 58.3687 34.9848 54.7293L34.9871 54.6797C35.0603 53.7545 35.0614 52.7726 34.9907 51.676L34.9848 51.5791L34.993 51.4822C35.3859 47.1291 35.4484 42.7004 35.1806 38.3189L35.1723 38.1889L35.1912 38.0602C35.3847 36.7261 35.3552 35.3046 35.3257 33.9304V33.8937L35.3304 33.707L35.3753 32.516L36.5656 32.4971C36.7013 32.4947 36.8382 32.4935 36.9738 32.4935C37.0588 32.4935 37.1437 32.4935 37.231 32.4959C43.6738 32.6294 49.9655 32.8445 56.1086 33.9906C56.2596 34.0202 56.4165 34.0355 56.5769 34.0355C57.286 34.0355 57.8287 33.7531 57.9785 33.4861C58.0871 33.2947 57.9714 33.0063 57.8452 32.7866C57.1727 31.8424 55.8478 31.4159 54.6339 31.124C51.7682 30.5379 49.5809 30.2591 47.5434 30.2177H47.5234L47.5305 30.2106Z" fill="black"/>
</g>
<defs>
<clipPath id="clip0_2001_860">
<rect width="66" height="65" fill="white"/>
</clipPath>
</defs>
</svg>
